<svg xmlns="http://www.w3.org/2000/svg" xmlns:xlink="http://www.w3.org/1999/xlink" width="48" zoomAndPan="magnify" viewBox="0 0 36 36.000001" height="48" preserveAspectRatio="xMidYMid meet" version="1.0"><defs><g/><clipPath id="f307742af0"><path d="M 0.488281 0 L 35.511719 0 L 35.511719 35.027344 L 0.488281 35.027344 Z M 0.488281 0 " clip-rule="nonzero"/></clipPath></defs><g clip-path="url(#f307742af0)"><path fill="#000000" d="M 18 0 C 8.328125 0 0.488281 7.839844 0.488281 17.511719 C 0.488281 27.1875 8.328125 35.027344 18 35.027344 C 27.671875 35.027344 35.511719 27.1875 35.511719 17.511719 C 35.511719 7.839844 27.671875 0 18 0 " fill-opacity="1" fill-rule="nonzero"/></g><g fill="#000000" fill-opacity="1"><g transform="translate(17.532516, 18.243245)"><g><path d="M 0.28125 -0.140625 C 0.28125 -0.160156 0.273438 -0.175781 0.265625 -0.1875 C 0.253906 -0.195312 0.238281 -0.203125 0.21875 -0.203125 C 0.207031 -0.210938 0.191406 -0.222656 0.171875 -0.234375 C 0.148438 -0.242188 0.128906 -0.25 0.109375 -0.25 C 0.0976562 -0.257812 0.0859375 -0.269531 0.078125 -0.28125 C 0.0664062 -0.300781 0.0625 -0.328125 0.0625 -0.359375 C 0.0625 -0.398438 0.0703125 -0.429688 0.09375 -0.453125 C 0.125 -0.484375 0.164062 -0.5 0.21875 -0.5 C 0.238281 -0.5 0.257812 -0.492188 0.28125 -0.484375 C 0.3125 -0.484375 0.332031 -0.476562 0.34375 -0.46875 L 0.328125 -0.390625 C 0.316406 -0.398438 0.300781 -0.40625 0.28125 -0.40625 C 0.257812 -0.414062 0.238281 -0.421875 0.21875 -0.421875 C 0.1875 -0.421875 0.164062 -0.414062 0.15625 -0.40625 C 0.144531 -0.394531 0.140625 -0.378906 0.140625 -0.359375 C 0.140625 -0.335938 0.144531 -0.320312 0.15625 -0.3125 C 0.164062 -0.300781 0.175781 -0.289062 0.1875 -0.28125 C 0.207031 -0.28125 0.222656 -0.273438 0.234375 -0.265625 C 0.253906 -0.265625 0.273438 -0.257812 0.296875 -0.25 C 0.316406 -0.238281 0.332031 -0.222656 0.34375 -0.203125 C 0.351562 -0.191406 0.359375 -0.171875 0.359375 -0.140625 C 0.359375 -0.117188 0.351562 -0.0976562 0.34375 -0.078125 C 0.34375 -0.0546875 0.332031 -0.0390625 0.3125 -0.03125 C 0.300781 -0.0195312 0.285156 -0.0078125 0.265625 0 C 0.253906 0.0078125 0.234375 0.015625 0.203125 0.015625 C 0.160156 0.015625 0.125 0.0078125 0.09375 0 C 0.0703125 -0.0078125 0.0507812 -0.0195312 0.03125 -0.03125 L 0.0625 -0.09375 C 0.0820312 -0.0820312 0.101562 -0.0703125 0.125 -0.0625 C 0.144531 -0.0625 0.171875 -0.0625 0.203125 -0.0625 C 0.222656 -0.0625 0.238281 -0.0664062 0.25 -0.078125 C 0.269531 -0.0859375 0.28125 -0.109375 0.28125 -0.140625 Z M 0.28125 -0.140625 "/></g></g></g><g fill="#000000" fill-opacity="1"><g transform="translate(17.940573, 18.243245)"><g><path d="M 0.453125 -0.171875 C 0.453125 -0.140625 0.453125 -0.109375 0.453125 -0.078125 C 0.453125 -0.046875 0.453125 -0.0195312 0.453125 0 L 0.40625 0 L 0.375 -0.0625 C 0.363281 -0.0390625 0.34375 -0.0195312 0.3125 0 C 0.289062 0.0078125 0.269531 0.015625 0.25 0.015625 C 0.175781 0.015625 0.125 -0.00390625 0.09375 -0.046875 C 0.0625 -0.0859375 0.046875 -0.15625 0.046875 -0.25 C 0.046875 -0.320312 0.0664062 -0.378906 0.109375 -0.421875 C 0.148438 -0.472656 0.203125 -0.5 0.265625 -0.5 C 0.285156 -0.5 0.300781 -0.492188 0.3125 -0.484375 C 0.332031 -0.484375 0.347656 -0.476562 0.359375 -0.46875 L 0.359375 -0.6875 L 0.453125 -0.6875 Z M 0.25 -0.0625 C 0.28125 -0.0625 0.304688 -0.0664062 0.328125 -0.078125 C 0.347656 -0.0976562 0.359375 -0.128906 0.359375 -0.171875 L 0.359375 -0.390625 C 0.347656 -0.398438 0.332031 -0.40625 0.3125 -0.40625 C 0.300781 -0.414062 0.285156 -0.421875 0.265625 -0.421875 C 0.222656 -0.421875 0.1875 -0.40625 0.15625 -0.375 C 0.132812 -0.34375 0.125 -0.300781 0.125 -0.25 C 0.125 -0.21875 0.125 -0.191406 0.125 -0.171875 C 0.132812 -0.148438 0.144531 -0.128906 0.15625 -0.109375 C 0.164062 -0.0976562 0.175781 -0.0859375 0.1875 -0.078125 C 0.207031 -0.0664062 0.226562 -0.0625 0.25 -0.0625 Z M 0.25 -0.0625 "/></g></g></g><g fill="#ffbd59" fill-opacity="1"><g transform="translate(3.755052, 25.135521)"><g><path d="M 0.875 -6.375 L 0.875 -6.984375 L 8.78125 -11.796875 L 9.5625 -10.515625 L 4.609375 -7.484375 L 2.71875 -6.6875 L 4.59375 -6.015625 L 9.671875 -3.015625 L 8.875 -1.75 Z M 0.875 -6.375 "/></g></g></g><g fill="#ffbd59" fill-opacity="1"><g transform="translate(14.300039, 25.135521)"><g><path d="M 6.859375 -14.875 L 8.171875 -14.296875 L 0.546875 2.921875 L -0.765625 2.34375 Z M 6.859375 -14.875 "/></g></g></g><g fill="#ffbd59" fill-opacity="1"><g transform="translate(21.691973, 25.135521)"><g><path d="M 9.671875 -7.1875 L 9.671875 -6.578125 L 1.78125 -1.75 L 0.984375 -3.03125 L 5.9375 -6.0625 L 7.828125 -6.859375 L 5.953125 -7.515625 L 0.875 -10.53125 L 1.671875 -11.796875 Z M 9.671875 -7.1875 "/></g></g></g></svg>